<svg xmlns="http://www.w3.org/2000/svg" viewBox="0 0 600 600">
<rect width="600" height="600" fill="#0A0A0A"/>
<g fill="#F4F2EE">
<circle cx="15" cy="15" r="2.05"/>
<circle cx="45" cy="15" r="2.58"/>
<circle cx="75" cy="15" r="3.09"/>
<circle cx="105" cy="15" r="3.55"/>
<circle cx="135" cy="15" r="3.96"/>
<circle cx="165" cy="15" r="4.32"/>
<circle cx="195" cy="15" r="4.63"/>
<circle cx="225" cy="15" r="4.86"/>
<circle cx="255" cy="15" r="5.02"/>
<circle cx="285" cy="15" r="5.1"/>
<circle cx="315" cy="15" r="5.1"/>
<circle cx="345" cy="15" r="5.02"/>
<circle cx="375" cy="15" r="4.86"/>
<circle cx="405" cy="15" r="4.63"/>
<circle cx="435" cy="15" r="4.32"/>
<circle cx="465" cy="15" r="3.96"/>
<circle cx="495" cy="15" r="3.55"/>
<circle cx="525" cy="15" r="3.09"/>
<circle cx="555" cy="15" r="2.58"/>
<circle cx="585" cy="15" r="2.05"/>
<circle cx="15" cy="45" r="2.58"/>
<circle cx="45" cy="45" r="3.15"/>
<circle cx="75" cy="45" r="3.68"/>
<circle cx="105" cy="45" r="4.18"/>
<circle cx="135" cy="45" r="4.63"/>
<circle cx="165" cy="45" r="5.02"/>
<circle cx="195" cy="45" r="5.35"/>
<circle cx="225" cy="45" r="5.61"/>
<circle cx="255" cy="45" r="5.79"/>
<circle cx="285" cy="45" r="5.88"/>
<circle cx="315" cy="45" r="5.88"/>
<circle cx="345" cy="45" r="5.79"/>
<circle cx="375" cy="45" r="5.61"/>
<circle cx="405" cy="45" r="5.35"/>
<circle cx="435" cy="45" r="5.02"/>
<circle cx="465" cy="45" r="4.63"/>
<circle cx="495" cy="45" r="4.18"/>
<circle cx="525" cy="45" r="3.68"/>
<circle cx="555" cy="45" r="3.15"/>
<circle cx="585" cy="45" r="2.58"/>
<circle cx="15" cy="75" r="3.09"/>
<circle cx="45" cy="75" r="3.68"/>
<circle cx="75" cy="75" r="4.25"/>
<circle cx="105" cy="75" r="4.78"/>
<circle cx="135" cy="75" r="5.27"/>
<circle cx="165" cy="75" r="5.7"/>
<circle cx="195" cy="75" r="6.06"/>
<circle cx="225" cy="75" r="6.35"/>
<circle cx="255" cy="75" r="6.55"/>
<circle cx="285" cy="75" r="6.65"/>
<circle cx="315" cy="75" r="6.65"/>
<circle cx="345" cy="75" r="6.55"/>
<circle cx="375" cy="75" r="6.35"/>
<circle cx="405" cy="75" r="6.06"/>
<circle cx="435" cy="75" r="5.7"/>
<circle cx="465" cy="75" r="5.27"/>
<circle cx="495" cy="75" r="4.78"/>
<circle cx="525" cy="75" r="4.25"/>
<circle cx="555" cy="75" r="3.68"/>
<circle cx="585" cy="75" r="3.09"/>
<circle cx="15" cy="105" r="3.55"/>
<circle cx="45" cy="105" r="4.18"/>
<circle cx="75" cy="105" r="4.78"/>
<circle cx="105" cy="105" r="5.35"/>
<circle cx="135" cy="105" r="5.88"/>
<circle cx="165" cy="105" r="6.35"/>
<circle cx="195" cy="105" r="6.76"/>
<circle cx="225" cy="105" r="7.08"/>
<circle cx="255" cy="105" r="7.31"/>
<circle cx="285" cy="105" r="7.43"/>
<circle cx="315" cy="105" r="7.43"/>
<circle cx="345" cy="105" r="7.31"/>
<circle cx="375" cy="105" r="7.08"/>
<circle cx="405" cy="105" r="6.76"/>
<circle cx="435" cy="105" r="6.35"/>
<circle cx="465" cy="105" r="5.88"/>
<circle cx="495" cy="105" r="5.35"/>
<circle cx="525" cy="105" r="4.78"/>
<circle cx="555" cy="105" r="4.18"/>
<circle cx="585" cy="105" r="3.55"/>
<circle cx="15" cy="135" r="3.96"/>
<circle cx="45" cy="135" r="4.63"/>
<circle cx="75" cy="135" r="5.27"/>
<circle cx="105" cy="135" r="5.88"/>
<circle cx="135" cy="135" r="6.45"/>
<circle cx="165" cy="135" r="6.97"/>
<circle cx="195" cy="135" r="7.43"/>
<circle cx="225" cy="135" r="7.8"/>
<circle cx="255" cy="135" r="8.07"/>
<circle cx="285" cy="135" r="8.2"/>
<circle cx="315" cy="135" r="8.2"/>
<circle cx="345" cy="135" r="8.07"/>
<circle cx="375" cy="135" r="7.8"/>
<circle cx="405" cy="135" r="7.43"/>
<circle cx="435" cy="135" r="6.97"/>
<circle cx="465" cy="135" r="6.45"/>
<circle cx="495" cy="135" r="5.88"/>
<circle cx="525" cy="135" r="5.27"/>
<circle cx="555" cy="135" r="4.63"/>
<circle cx="585" cy="135" r="3.96"/>
<circle cx="15" cy="165" r="4.32"/>
<circle cx="45" cy="165" r="5.02"/>
<circle cx="75" cy="165" r="5.7"/>
<circle cx="105" cy="165" r="6.35"/>
<circle cx="135" cy="165" r="6.97"/>
<circle cx="165" cy="165" r="7.55"/>
<circle cx="195" cy="165" r="8.07"/>
<circle cx="225" cy="165" r="8.5"/>
<circle cx="255" cy="165" r="8.81"/>
<circle cx="285" cy="165" r="8.98"/>
<circle cx="315" cy="165" r="8.98"/>
<circle cx="345" cy="165" r="8.81"/>
<circle cx="375" cy="165" r="8.5"/>
<circle cx="405" cy="165" r="8.07"/>
<circle cx="435" cy="165" r="7.55"/>
<circle cx="465" cy="165" r="6.97"/>
<circle cx="495" cy="165" r="6.35"/>
<circle cx="525" cy="165" r="5.7"/>
<circle cx="555" cy="165" r="5.02"/>
<circle cx="585" cy="165" r="4.32"/>
<circle cx="15" cy="195" r="4.63"/>
<circle cx="45" cy="195" r="5.35"/>
<circle cx="75" cy="195" r="6.06"/>
<circle cx="105" cy="195" r="6.76"/>
<circle cx="135" cy="195" r="7.43"/>
<circle cx="165" cy="195" r="8.07"/>
<circle cx="195" cy="195" r="8.65"/>
<circle cx="225" cy="195" r="9.15"/>
<circle cx="255" cy="195" r="9.54"/>
<circle cx="285" cy="195" r="9.75"/>
<circle cx="315" cy="195" r="9.75"/>
<circle cx="345" cy="195" r="9.54"/>
<circle cx="375" cy="195" r="9.15"/>
<circle cx="405" cy="195" r="8.65"/>
<circle cx="435" cy="195" r="8.07"/>
<circle cx="465" cy="195" r="7.43"/>
<circle cx="495" cy="195" r="6.76"/>
<circle cx="525" cy="195" r="6.06"/>
<circle cx="555" cy="195" r="5.35"/>
<circle cx="585" cy="195" r="4.63"/>
<circle cx="15" cy="225" r="4.86"/>
<circle cx="45" cy="225" r="5.61"/>
<circle cx="75" cy="225" r="6.35"/>
<circle cx="105" cy="225" r="7.08"/>
<circle cx="135" cy="225" r="7.8"/>
<circle cx="165" cy="225" r="8.5"/>
<circle cx="195" cy="225" r="9.15"/>
<circle cx="225" cy="225" r="9.75"/>
<circle cx="255" cy="225" r="10.23"/>
<circle cx="285" cy="225" r="10.52"/>
<circle cx="315" cy="225" r="10.52"/>
<circle cx="345" cy="225" r="10.23"/>
<circle cx="375" cy="225" r="9.75"/>
<circle cx="405" cy="225" r="9.15"/>
<circle cx="435" cy="225" r="8.5"/>
<circle cx="465" cy="225" r="7.8"/>
<circle cx="495" cy="225" r="7.08"/>
<circle cx="525" cy="225" r="6.35"/>
<circle cx="555" cy="225" r="5.61"/>
<circle cx="585" cy="225" r="4.86"/>
<circle cx="15" cy="255" r="5.02"/>
<circle cx="45" cy="255" r="5.79"/>
<circle cx="75" cy="255" r="6.55"/>
<circle cx="105" cy="255" r="7.31"/>
<circle cx="135" cy="255" r="8.07"/>
<circle cx="165" cy="255" r="8.81"/>
<circle cx="195" cy="255" r="9.54"/>
<circle cx="225" cy="255" r="10.23"/>
<circle cx="255" cy="255" r="10.85"/>
<circle cx="285" cy="255" r="11.27"/>
<circle cx="315" cy="255" r="11.27"/>
<circle cx="345" cy="255" r="10.85"/>
<circle cx="375" cy="255" r="10.23"/>
<circle cx="405" cy="255" r="9.54"/>
<circle cx="435" cy="255" r="8.81"/>
<circle cx="465" cy="255" r="8.07"/>
<circle cx="495" cy="255" r="7.31"/>
<circle cx="525" cy="255" r="6.55"/>
<circle cx="555" cy="255" r="5.79"/>
<circle cx="585" cy="255" r="5.02"/>
<circle cx="15" cy="285" r="5.1"/>
<circle cx="45" cy="285" r="5.88"/>
<circle cx="75" cy="285" r="6.65"/>
<circle cx="105" cy="285" r="7.43"/>
<circle cx="135" cy="285" r="8.2"/>
<circle cx="165" cy="285" r="8.98"/>
<circle cx="195" cy="285" r="9.75"/>
<circle cx="225" cy="285" r="10.52"/>
<circle cx="255" cy="285" r="11.27"/>
<circle cx="285" cy="285" r="11.95"/>
<circle cx="315" cy="285" r="11.95"/>
<circle cx="345" cy="285" r="11.27"/>
<circle cx="375" cy="285" r="10.52"/>
<circle cx="405" cy="285" r="9.75"/>
<circle cx="435" cy="285" r="8.98"/>
<circle cx="465" cy="285" r="8.2"/>
<circle cx="495" cy="285" r="7.43"/>
<circle cx="525" cy="285" r="6.65"/>
<circle cx="555" cy="285" r="5.88"/>
<circle cx="585" cy="285" r="5.1"/>
<circle cx="15" cy="315" r="5.1"/>
<circle cx="45" cy="315" r="5.88"/>
<circle cx="75" cy="315" r="6.65"/>
<circle cx="105" cy="315" r="7.43"/>
<circle cx="135" cy="315" r="8.2"/>
<circle cx="165" cy="315" r="8.98"/>
<circle cx="195" cy="315" r="9.75"/>
<circle cx="225" cy="315" r="10.52"/>
<circle cx="255" cy="315" r="11.27"/>
<circle cx="285" cy="315" r="11.95"/>
<circle cx="315" cy="315" r="11.95"/>
<circle cx="345" cy="315" r="11.27"/>
<circle cx="375" cy="315" r="10.52"/>
<circle cx="405" cy="315" r="9.75"/>
<circle cx="435" cy="315" r="8.98"/>
<circle cx="465" cy="315" r="8.2"/>
<circle cx="495" cy="315" r="7.43"/>
<circle cx="525" cy="315" r="6.65"/>
<circle cx="555" cy="315" r="5.88"/>
<circle cx="585" cy="315" r="5.1"/>
<circle cx="15" cy="345" r="5.02"/>
<circle cx="45" cy="345" r="5.79"/>
<circle cx="75" cy="345" r="6.55"/>
<circle cx="105" cy="345" r="7.31"/>
<circle cx="135" cy="345" r="8.07"/>
<circle cx="165" cy="345" r="8.81"/>
<circle cx="195" cy="345" r="9.54"/>
<circle cx="225" cy="345" r="10.23"/>
<circle cx="255" cy="345" r="10.85"/>
<circle cx="285" cy="345" r="11.27"/>
<circle cx="315" cy="345" r="11.27"/>
<circle cx="345" cy="345" r="10.85"/>
<circle cx="375" cy="345" r="10.23"/>
<circle cx="405" cy="345" r="9.54"/>
<circle cx="435" cy="345" r="8.81"/>
<circle cx="465" cy="345" r="8.07"/>
<circle cx="495" cy="345" r="7.31"/>
<circle cx="525" cy="345" r="6.55"/>
<circle cx="555" cy="345" r="5.79"/>
<circle cx="585" cy="345" r="5.02"/>
<circle cx="15" cy="375" r="4.86"/>
<circle cx="45" cy="375" r="5.61"/>
<circle cx="75" cy="375" r="6.35"/>
<circle cx="105" cy="375" r="7.08"/>
<circle cx="135" cy="375" r="7.8"/>
<circle cx="165" cy="375" r="8.5"/>
<circle cx="195" cy="375" r="9.15"/>
<circle cx="225" cy="375" r="9.75"/>
<circle cx="255" cy="375" r="10.23"/>
<circle cx="285" cy="375" r="10.52"/>
<circle cx="315" cy="375" r="10.52"/>
<circle cx="345" cy="375" r="10.23"/>
<circle cx="375" cy="375" r="9.75"/>
<circle cx="405" cy="375" r="9.15"/>
<circle cx="435" cy="375" r="8.5"/>
<circle cx="465" cy="375" r="7.8"/>
<circle cx="495" cy="375" r="7.08"/>
<circle cx="525" cy="375" r="6.35"/>
<circle cx="555" cy="375" r="5.61"/>
<circle cx="585" cy="375" r="4.86"/>
<circle cx="15" cy="405" r="4.63"/>
<circle cx="45" cy="405" r="5.35"/>
<circle cx="75" cy="405" r="6.06"/>
<circle cx="105" cy="405" r="6.76"/>
<circle cx="135" cy="405" r="7.43"/>
<circle cx="165" cy="405" r="8.07"/>
<circle cx="195" cy="405" r="8.65"/>
<circle cx="225" cy="405" r="9.15"/>
<circle cx="255" cy="405" r="9.54"/>
<circle cx="285" cy="405" r="9.75"/>
<circle cx="315" cy="405" r="9.75"/>
<circle cx="345" cy="405" r="9.54"/>
<circle cx="375" cy="405" r="9.15"/>
<circle cx="405" cy="405" r="8.65"/>
<circle cx="435" cy="405" r="8.07"/>
<circle cx="465" cy="405" r="7.43"/>
<circle cx="495" cy="405" r="6.76"/>
<circle cx="525" cy="405" r="6.06"/>
<circle cx="555" cy="405" r="5.35"/>
<circle cx="585" cy="405" r="4.63"/>
<circle cx="15" cy="435" r="4.32"/>
<circle cx="45" cy="435" r="5.02"/>
<circle cx="75" cy="435" r="5.7"/>
<circle cx="105" cy="435" r="6.35"/>
<circle cx="135" cy="435" r="6.97"/>
<circle cx="165" cy="435" r="7.55"/>
<circle cx="195" cy="435" r="8.07"/>
<circle cx="225" cy="435" r="8.5"/>
<circle cx="255" cy="435" r="8.81"/>
<circle cx="285" cy="435" r="8.98"/>
<circle cx="315" cy="435" r="8.98"/>
<circle cx="345" cy="435" r="8.81"/>
<circle cx="375" cy="435" r="8.5"/>
<circle cx="405" cy="435" r="8.07"/>
<circle cx="435" cy="435" r="7.55"/>
<circle cx="465" cy="435" r="6.97"/>
<circle cx="495" cy="435" r="6.35"/>
<circle cx="525" cy="435" r="5.7"/>
<circle cx="555" cy="435" r="5.02"/>
<circle cx="585" cy="435" r="4.32"/>
<circle cx="15" cy="465" r="3.96"/>
<circle cx="45" cy="465" r="4.63"/>
<circle cx="75" cy="465" r="5.27"/>
<circle cx="105" cy="465" r="5.88"/>
<circle cx="135" cy="465" r="6.45"/>
<circle cx="165" cy="465" r="6.97"/>
<circle cx="195" cy="465" r="7.43"/>
<circle cx="225" cy="465" r="7.8"/>
<circle cx="255" cy="465" r="8.07"/>
<circle cx="285" cy="465" r="8.2"/>
<circle cx="315" cy="465" r="8.2"/>
<circle cx="345" cy="465" r="8.07"/>
<circle cx="375" cy="465" r="7.8"/>
<circle cx="405" cy="465" r="7.43"/>
<circle cx="435" cy="465" r="6.97"/>
<circle cx="465" cy="465" r="6.45"/>
<circle cx="495" cy="465" r="5.88"/>
<circle cx="525" cy="465" r="5.27"/>
<circle cx="555" cy="465" r="4.63"/>
<circle cx="585" cy="465" r="3.96"/>
<circle cx="15" cy="495" r="3.55"/>
<circle cx="45" cy="495" r="4.18"/>
<circle cx="75" cy="495" r="4.78"/>
<circle cx="105" cy="495" r="5.35"/>
<circle cx="135" cy="495" r="5.88"/>
<circle cx="165" cy="495" r="6.35"/>
<circle cx="195" cy="495" r="6.76"/>
<circle cx="225" cy="495" r="7.08"/>
<circle cx="255" cy="495" r="7.31"/>
<circle cx="285" cy="495" r="7.43"/>
<circle cx="315" cy="495" r="7.43"/>
<circle cx="345" cy="495" r="7.31"/>
<circle cx="375" cy="495" r="7.08"/>
<circle cx="405" cy="495" r="6.76"/>
<circle cx="435" cy="495" r="6.35"/>
<circle cx="465" cy="495" r="5.88"/>
<circle cx="495" cy="495" r="5.35"/>
<circle cx="525" cy="495" r="4.78"/>
<circle cx="555" cy="495" r="4.18"/>
<circle cx="585" cy="495" r="3.55"/>
<circle cx="15" cy="525" r="3.09"/>
<circle cx="45" cy="525" r="3.68"/>
<circle cx="75" cy="525" r="4.25"/>
<circle cx="105" cy="525" r="4.78"/>
<circle cx="135" cy="525" r="5.27"/>
<circle cx="165" cy="525" r="5.7"/>
<circle cx="195" cy="525" r="6.06"/>
<circle cx="225" cy="525" r="6.35"/>
<circle cx="255" cy="525" r="6.55"/>
<circle cx="285" cy="525" r="6.65"/>
<circle cx="315" cy="525" r="6.65"/>
<circle cx="345" cy="525" r="6.55"/>
<circle cx="375" cy="525" r="6.35"/>
<circle cx="405" cy="525" r="6.06"/>
<circle cx="435" cy="525" r="5.7"/>
<circle cx="465" cy="525" r="5.27"/>
<circle cx="495" cy="525" r="4.78"/>
<circle cx="525" cy="525" r="4.25"/>
<circle cx="555" cy="525" r="3.68"/>
<circle cx="585" cy="525" r="3.09"/>
<circle cx="15" cy="555" r="2.58"/>
<circle cx="45" cy="555" r="3.15"/>
<circle cx="75" cy="555" r="3.68"/>
<circle cx="105" cy="555" r="4.18"/>
<circle cx="135" cy="555" r="4.63"/>
<circle cx="165" cy="555" r="5.02"/>
<circle cx="195" cy="555" r="5.35"/>
<circle cx="225" cy="555" r="5.61"/>
<circle cx="255" cy="555" r="5.79"/>
<circle cx="285" cy="555" r="5.88"/>
<circle cx="315" cy="555" r="5.88"/>
<circle cx="345" cy="555" r="5.79"/>
<circle cx="375" cy="555" r="5.61"/>
<circle cx="405" cy="555" r="5.35"/>
<circle cx="435" cy="555" r="5.02"/>
<circle cx="465" cy="555" r="4.63"/>
<circle cx="495" cy="555" r="4.18"/>
<circle cx="525" cy="555" r="3.68"/>
<circle cx="555" cy="555" r="3.15"/>
<circle cx="585" cy="555" r="2.58"/>
<circle cx="15" cy="585" r="2.05"/>
<circle cx="45" cy="585" r="2.58"/>
<circle cx="75" cy="585" r="3.09"/>
<circle cx="105" cy="585" r="3.55"/>
<circle cx="135" cy="585" r="3.96"/>
<circle cx="165" cy="585" r="4.32"/>
<circle cx="195" cy="585" r="4.63"/>
<circle cx="225" cy="585" r="4.86"/>
<circle cx="255" cy="585" r="5.02"/>
<circle cx="285" cy="585" r="5.1"/>
<circle cx="315" cy="585" r="5.1"/>
<circle cx="345" cy="585" r="5.02"/>
<circle cx="375" cy="585" r="4.86"/>
<circle cx="405" cy="585" r="4.63"/>
<circle cx="435" cy="585" r="4.32"/>
<circle cx="465" cy="585" r="3.96"/>
<circle cx="495" cy="585" r="3.55"/>
<circle cx="525" cy="585" r="3.09"/>
<circle cx="555" cy="585" r="2.58"/>
<circle cx="585" cy="585" r="2.05"/>
</g></svg>